# xmcd
#
# Track frame offsets: 
#        150
#        11152
#        22327
#        35207
#        50732
#        66585
#        78597
#        91276
#        106183
#        121018
#        133040
#        144848
#
# Disc length: 2173 seconds
#
# Revision: 1
# Processed by: cddbd v1.5.2PL0 Copyright (c) Steve Scherf et al.
# Submitted via: ExactAudioCopyFreeDBPlugin 1.0
#
DISCID=ab087b0c
DTITLE=Sam Cooke - Mr. Soul {2014,RE,EU,OAC,RCA,88843066012-CD3}
DYEAR=1962
DGENRE=Soul
TTITLE0=I Wish You Love
TTITLE1=Willow Weep For Me
TTITLE2=Chains Of Love
TTITLE3=Smoke Rings
TTITLE4=All The Way
TTITLE5=Send Me Some Lovin'
TTITLE6=Cry Me A River
TTITLE7=Driftin' Blues
TTITLE8=For Sentimental Reasons
TTITLE9=Nothing Can Change This Love
TTITLE10=Little Girl
TTITLE11=These Foolish Things
EXTD=
EXTT0=
EXTT1=
EXTT2=
EXTT3=
EXTT4=
EXTT5=
EXTT6=
EXTT7=
EXTT8=
EXTT9=
EXTT10=
EXTT11=
PLAYORDER=
